:SAMPLES-PER-SECOND 30
:FULLY-SPECIFIED
:DEGREES
175
root  -65.8194 32.3625 42.5549 -158.854 75.0198 -178.258
RightUpLeg  -39.6233 -17.4646 -3.88551
RightLeg  31.2413 8.18796 4.24232
RightFoot  3.68525 -0.0111223 0.719704
RightToes  -54.2718 -0.341307 -0.392885
Spine  10.0512 -2.54087 2.71628
Spine1  18.1798 -6.01435 4.74446
HEad  7.58911 21.1902 -10.7039
LeftShoulder1  0 -2.42657e-020 -4.95415e-022
LeftArm  -34.5923 -4.72133 -84.7848
LeftForeArm  48.7505 -17.591 -3.17617
LeftHand  0.229232 -10.2047 -2.93882
RightShoulder  0 2.42657e-020 1.07489e-018
RightArm  -34.2947 -14.1553 74.9994
RightForeArm  39.0509 78.7095 62.7548
RightHand  2.15567 19.3697 12.9562
LeftUpLeg  -25.8913 12.1624 12.0666
LeftLeg  41.8417 15.5172 11.8666
LeftFoot  3.39184 -0.0196276 0.662899
LeftToes  -21.4309 8.63562e-007 1.17448e-007
176
root  -65.4639 32.483 42.8318 -158.516 74.5364 -177.322
RightUpLeg  -38.2297 -18.1834 -3.05753
RightLeg  30.667 8.68684 4.39006
RightFoot  3.60412 -0.0107344 0.718592
RightToes  -55.0799 -0.348708 -0.394033
Spine  9.78788 -2.50723 2.70889
Spine1  17.8167 -5.7994 4.52548
HEad  6.11205 22.4177 -11.0107
LeftShoulder1  0 -2.42657e-020 -4.95415e-022
LeftArm  -35.6367 -3.7074 -85.3995
LeftForeArm  49.6649 -17.8321 -3.22144
LeftHand  0.237664 -10.4823 -2.96233
RightShoulder  0 2.42657e-020 1.07489e-018
RightArm  -35.0005 -17.7457 74.3533
RightForeArm  84.2505 79.412 107.788
RightHand  2.31381 19.7793 13.5889
LeftUpLeg  -25.6936 11.6599 12.3324
LeftLeg  42.8204 14.2102 11.2917
LeftFoot  3.1115 -0.0142834 0.525895
LeftToes  -18.1604 8.63562e-007 1.17448e-007
177
root  -65.1742 32.5902 43.0736 -158.649 73.3757 -177.065
RightUpLeg  -36.9575 -18.8759 -2.56526
RightLeg  30.1936 8.62588 4.27145
RightFoot  3.51252 -0.00893339 0.683537
RightToes  -56.2237 -0.359249 -0.395178
Spine  9.55639 -2.56653 2.55425
Spine1  17.3999 -5.82869 4.18714
HEad  4.15051 23.5569 -10.4689
LeftShoulder1  0 -2.42657e-020 -4.95415e-022
LeftArm  -35.8423 -3.11768 -85.705
LeftForeArm  50.2411 -18.3911 -3.32948
LeftHand  0.216392 -10.5207 -2.72172
RightShoulder  0 2.42657e-020 1.07489e-018
RightArm  -35.8963 -19.8691 73.9454
RightForeArm  109.078 76.3801 132.589
RightHand  2.30349 20.0258 13.3665
LeftUpLeg  -26.5149 10.9543 12.8034
LeftLeg  43.5517 9.71731 8.01866
LeftFoot  2.40777 -0.00138473 0.0658837
LeftToes  -18.9314 8.63562e-007 1.17448e-007
178
root  -64.9121 32.6574 43.1726 -159.475 72.0875 -177.331
RightUpLeg  -35.538 -19.7686 -2.47883
RightLeg  29.9377 8.41478 4.1216
RightFoot  3.16082 -0.00467678 0.607695
RightToes  -56.519 -0.361983 -0.396202
Spine  9.47844 -2.6414 2.2593
Spine1  17.2426 -5.8895 3.63134
HEad  1.76023 24.4682 -9.80919
LeftShoulder1  0 -2.42657e-020 -4.95415e-022
LeftArm  -35.389 -2.98539 -85.8491
LeftForeArm  49.6363 -19.051 -3.46019
LeftHand  0.205113 -10.4048 -2.62417
RightShoulder  0 2.42657e-020 1.07489e-018
RightArm  -36.1378 -20.6374 73.3212
RightForeArm  118.645 73.6401 142.517
RightHand  2.08239 20.0968 12.0859
LeftUpLeg  -27.2788 10.939 13.0796
LeftLeg  43.2756 5.91666 4.86722
LeftFoot  1.00794 0.00291597 -0.331515
LeftToes  -18.9583 8.63562e-007 1.17448e-007
179
root  -64.7112 32.7154 43.2285 -160.006 70.1735 -177.441
RightUpLeg  -34.0403 -20.5205 -2.45428
RightLeg  29.4222 7.4993 3.5936
RightFoot  2.83265 0.00109265 0.506856
RightToes  -56.3084 -0.360133 -0.396986
Spine  9.42178 -2.82499 2.0136
Spine1  17.0718 -6.18075 3.19798
HEad  -0.133022 24.9841 -9.08441
LeftShoulder1  0 -2.42657e-020 -4.95415e-022
LeftArm  -34.8598 -3.14123 -85.9204
LeftForeArm  48.9453 -19.7216 -3.59424
LeftHand  0.246296 -10.7879 -2.97989
RightShoulder  0 2.42657e-020 1.07489e-018
RightArm  -36.4655 -20.8871 72.643
RightForeArm  122.787 71.6106 147.464
RightHand  1.92728 19.8415 11.3601
LeftUpLeg  -28.4096 12.6028 12.9948
LeftLeg  41.2686 4.34774 3.33408
LeftFoot  0.764487 0.00270741 -0.405827
LeftToes  -20.0463 8.63562e-007 1.17448e-007
180
root  -64.5722 32.7493 43.2097 -160.362 67.5961 -177.827
RightUpLeg  -32.8288 -21.9883 -2.33655
RightLeg  28.7006 6.52829 3.03067
RightFoot  2.43238 0.00622057 0.415619
RightToes  -56.0221 -0.357386 -0.397413
Spine  9.29205 -3.13815 1.84883
Spine1  16.7273 -6.76494 3.01804
HEad  -1.34509 24.6415 -8.17107
LeftShoulder1  0 -2.42657e-020 -4.95415e-022
LeftArm  -33.6813 -3.51238 -86.0964
LeftForeArm  48.3216 -20.3264 -3.71611
LeftHand  0.248574 -10.4937 -3.07831
RightShoulder  0 2.42657e-020 1.07489e-018
RightArm  -37.3594 -20.736 72.4112
RightForeArm  126.589 69.8482 150.809
RightHand  1.80977 19.5408 10.8549
LeftUpLeg  -30.0627 14.3491 12.6008
LeftLeg  36.7939 4.63124 3.00963
LeftFoot  0.570911 0.00216512 -0.434583
LeftToes  -22.0077 8.63562e-007 1.17448e-007
181
root  -64.4892 32.7382 43.1048 -160.249 65.1874 -177.718
RightUpLeg  -31.7795 -23.7921 -2.07549
RightLeg  28.1407 5.92812 2.6833
RightFoot  1.82833 0.0103468 0.340738
RightToes  -54.5716 -0.355846 -0.397364
Spine  9.20205 -3.32445 1.69226
Spine1  16.4423 -7.1072 2.9031
HEad  -1.8712 23.6758 -6.91366
LeftShoulder1  0 -2.42657e-020 -4.95415e-022
LeftArm  -32.4015 -4.14515 -86.3505
LeftForeArm  48.4044 -20.701 -3.79133
LeftHand  0.263651 -10.5032 -3.23991
RightShoulder  0 2.42657e-020 1.07489e-018
RightArm  -37.5027 -20.192 72.0023
RightForeArm  129.415 68.6104 152.785
RightHand  1.59432 19.4612 9.6507
LeftUpLeg  -32.0042 15.6305 12.1006
LeftLeg  31.931 4.1023 2.19722
LeftFoot  2.16337 0.00615463 -0.325974
LeftToes  -22.7994 8.63562e-007 1.17448e-007
